<?xml version="1.0" encoding="UTF-8" standalone="no"?>
<svg
   xmlns:dc="http://purl.org/dc/elements/1.1/"
   xmlns:cc="http://creativecommons.org/ns#"
   xmlns:rdf="http://www.w3.org/1999/02/22-rdf-syntax-ns#"
   xmlns:svg="http://www.w3.org/2000/svg"
   xmlns="http://www.w3.org/2000/svg"
   xmlns:xlink="http://www.w3.org/1999/xlink"
   xmlns:sodipodi="http://sodipodi.sourceforge.net/DTD/sodipodi-0.dtd"
   xmlns:inkscape="http://www.inkscape.org/namespaces/inkscape"
   version="1.1"
   width="32"
   height="32"
   id="svg4505"
   sodipodi:docname="contacts-avatar-default.svg"
   inkscape:version="0.92.3 (2405546, 2018-03-11)">
  <sodipodi:namedview
     pagecolor="#ffffff"
     bordercolor="#666666"
     borderopacity="1"
     objecttolerance="10"
     gridtolerance="10"
     guidetolerance="10"
     inkscape:pageopacity="0"
     inkscape:pageshadow="2"
     inkscape:window-width="1366"
     inkscape:window-height="705"
     id="namedview27"
     showgrid="false"
     inkscape:snap-bbox="true"
     inkscape:bbox-paths="true"
     inkscape:bbox-nodes="true"
     inkscape:snap-bbox-edge-midpoints="true"
     inkscape:snap-bbox-midpoints="true"
     inkscape:object-paths="true"
     inkscape:snap-intersection-paths="true"
     inkscape:snap-smooth-nodes="true"
     inkscape:snap-midpoints="true"
     inkscape:snap-object-midpoints="true"
     inkscape:snap-center="true"
     inkscape:snap-text-baseline="true"
     inkscape:snap-page="true"
     inkscape:zoom="3.6875"
     inkscape:cx="-5.9889646"
     inkscape:cy="-3.4226823"
     inkscape:window-x="0"
     inkscape:window-y="30"
     inkscape:window-maximized="1"
     inkscape:current-layer="svg4505" />
  <defs
     id="defs4507">
    <linearGradient
       id="linearGradient4806-9">
      <stop
         id="stop4808-49"
         style="stop-color:#ffffff;stop-opacity:1"
         offset="0" />
      <stop
         id="stop4810-05"
         style="stop-color:#ffffff;stop-opacity:0.23529412"
         offset="0.42447853" />
      <stop
         id="stop4812-6"
         style="stop-color:#ffffff;stop-opacity:0.15686275"
         offset="0.82089913" />
      <stop
         id="stop4814-7"
         style="stop-color:#ffffff;stop-opacity:0.39215687"
         offset="1" />
    </linearGradient>
    <linearGradient
       id="linearGradient3820-7-2-2">
      <stop
         id="stop3822-2-6-36"
         style="stop-color:#3d3d3d;stop-opacity:1"
         offset="0" />
      <stop
         id="stop3864-8-7-6"
         style="stop-color:#686868;stop-opacity:0.49803922"
         offset="0.5" />
      <stop
         id="stop3824-1-2-4"
         style="stop-color:#686868;stop-opacity:0"
         offset="1" />
    </linearGradient>
    <linearGradient
       x1="71.204407"
       y1="15.369057"
       x2="71.204407"
       y2="40.495617"
       id="linearGradient3028"
       xlink:href="#linearGradient4806-9"
       gradientUnits="userSpaceOnUse"
       gradientTransform="matrix(1.1022033,0,0,1.1022038,-63.55275,-14.715001)" />
    <radialGradient
       cx="99.157013"
       cy="186.17059"
       r="62.769119"
       fx="99.157013"
       fy="186.17059"
       id="radialGradient3043"
       xlink:href="#linearGradient3820-7-2-2"
       gradientUnits="userSpaceOnUse"
       gradientTransform="matrix(0.17524541,0,0,0.05575992,-1.37681,18.119145)" />
    <linearGradient
       id="linearGradient27416-1-2-0-1">
      <stop
         id="stop27420-2-0-8-7"
         style="stop-color:#9bdb4d;stop-opacity:1"
         offset="0" />
      <stop
         id="stop27422-3-5-3-3"
         style="stop-color:#3a9104;stop-opacity:1"
         offset="1" />
    </linearGradient>
    <linearGradient
       xlink:href="#linearGradient27416-1-2-0-1"
       id="linearGradient3836"
       gradientUnits="userSpaceOnUse"
       gradientTransform="matrix(0.52889662,0,0,0.96274429,44.265445,-39.861252)"
       x1="30.271185"
       y1="2.9869876"
       x2="30.271185"
       y2="55.616341" />
  </defs>
  <metadata
     id="metadata4510">
    <rdf:RDF>
      <cc:Work
         rdf:about="">
        <dc:format>image/svg+xml</dc:format>
        <dc:type
           rdf:resource="http://purl.org/dc/dcmitype/StillImage" />
        <dc:title />
      </cc:Work>
    </rdf:RDF>
  </metadata>
  <path
     style="color:#000000;display:inline;overflow:visible;visibility:visible;fill:url(#linearGradient3836);fill-opacity:1;fill-rule:nonzero;stroke:none;stroke-width:1.70643353;marker:none;enable-background:accumulate"
     id="path3029"
     d="M 32,32 H 0 V 0 h 32 z"
     inkscape:connector-curvature="0"
     sodipodi:nodetypes="ccccc" />
  <path
     style="opacity:0.07000002;color:#000000;fill:#000000;fill-opacity:1;fill-rule:nonzero;stroke:#000000;stroke-width:2;stroke-miterlimit:4;stroke-opacity:1;stroke-dasharray:none;marker:none;visibility:visible;display:inline;overflow:visible;enable-background:accumulate"
     id="path3840"
     d="m 16,8.6843084 c -3.332651,0 -6.034298,2.5977386 -6.034298,5.8022106 0,3.204472 2.701647,5.80221 6.034298,5.80221 3.332651,0 6.034299,-2.597738 6.034299,-5.80221 0,-3.204472 -2.701648,-5.8022106 -6.034299,-5.8022106 z M 13.787908,21.260599 c -2.716455,0 -5.06611,1.59814 -6.2518825,3.945503 C 9.6532546,27.46441 12.660166,28.876 16,28.876 c 3.339835,0 6.346746,-1.41159 8.463975,-3.669898 -1.185773,-2.347363 -3.535427,-3.945503 -6.251882,-3.945503 l -4.424185,0 z" />
  <path
     d="m 16,8.3711214 c -3.332651,0 -6.034298,2.5977386 -6.034298,5.8022106 0,3.204472 2.701647,5.80221 6.034298,5.80221 3.332651,0 6.034299,-2.597738 6.034299,-5.80221 C 22.034299,10.96886 19.332651,8.3711214 16,8.3711214 z M 13.787908,20.947412 c -2.716455,0 -5.06611,1.59814 -6.2518825,3.945503 2.1172291,2.258308 5.1241405,3.669898 8.4639745,3.669898 3.339835,0 6.346746,-1.41159 8.463975,-3.669898 -1.185773,-2.347363 -3.535427,-3.945503 -6.251882,-3.945503 l -4.424185,0 z"
     id="path3070"
     style="opacity:0.15;color:#000000;fill:#000000;fill-opacity:1;fill-rule:nonzero;stroke:none;stroke-width:2;marker:none;visibility:visible;display:inline;overflow:visible;enable-background:accumulate" />
  <path
     style="color:#000000;fill:#ffffff;fill-opacity:1;fill-rule:nonzero;stroke:none;stroke-width:2;marker:none;visibility:visible;display:inline;overflow:visible;enable-background:accumulate"
     id="rect3049"
     d="m 16,7.3711214 c -3.332651,0 -6.034298,2.5977386 -6.034298,5.8022106 0,3.204472 2.701647,5.80221 6.034298,5.80221 3.332651,0 6.034299,-2.597738 6.034299,-5.80221 C 22.034299,9.96886 19.332651,7.3711214 16,7.3711214 z M 13.787908,19.947412 c -2.716455,0 -5.06611,1.59814 -6.2518825,3.945503 2.1172291,2.258308 5.1241405,3.669898 8.4639745,3.669898 3.339835,0 6.346746,-1.41159 8.463975,-3.669898 -1.185773,-2.347363 -3.535427,-3.945503 -6.251882,-3.945503 l -4.424185,0 z" />
</svg>
