<?xml version="1.0" encoding="UTF-8" standalone="no"?>
<svg
   xmlns:dc="http://purl.org/dc/elements/1.1/"
   xmlns:cc="http://creativecommons.org/ns#"
   xmlns:rdf="http://www.w3.org/1999/02/22-rdf-syntax-ns#"
   xmlns:svg="http://www.w3.org/2000/svg"
   xmlns="http://www.w3.org/2000/svg"
   xmlns:xlink="http://www.w3.org/1999/xlink"
   xmlns:sodipodi="http://sodipodi.sourceforge.net/DTD/sodipodi-0.dtd"
   xmlns:inkscape="http://www.inkscape.org/namespaces/inkscape"
   version="1.1"
   width="256"
   height="256"
   id="svg4134"
   sodipodi:docname="x-office-address-book.svg"
   inkscape:version="0.92.3 (2405546, 2018-03-11)">
  <sodipodi:namedview
     pagecolor="#ffffff"
     bordercolor="#666666"
     borderopacity="1"
     objecttolerance="10"
     gridtolerance="10"
     guidetolerance="10"
     inkscape:pageopacity="0"
     inkscape:pageshadow="2"
     inkscape:window-width="1600"
     inkscape:window-height="837"
     id="namedview92"
     showgrid="false"
     inkscape:snap-global="false"
     inkscape:snap-bbox="true"
     inkscape:bbox-paths="true"
     inkscape:bbox-nodes="true"
     inkscape:snap-bbox-edge-midpoints="true"
     inkscape:snap-bbox-midpoints="true"
     inkscape:object-paths="true"
     inkscape:snap-intersection-paths="true"
     inkscape:snap-smooth-nodes="true"
     inkscape:snap-object-midpoints="true"
     inkscape:snap-midpoints="true"
     inkscape:snap-center="true"
     inkscape:snap-text-baseline="true"
     inkscape:snap-page="true"
     inkscape:zoom="0.921875"
     inkscape:cx="207.73785"
     inkscape:cy="177.86685"
     inkscape:window-x="0"
     inkscape:window-y="30"
     inkscape:window-maximized="1"
     inkscape:current-layer="layer1" />
  <defs
     id="defs4136">
    <linearGradient
       id="linearGradient4903">
      <stop
         id="stop4901"
         style="stop-color:#ffffff;stop-opacity:0.39215687"
         offset="0" />
      <stop
         id="stop4899"
         style="stop-color:#ffffff;stop-opacity:0.15686275"
         offset="0.02622968" />
      <stop
         id="stop4897"
         style="stop-color:#ffffff;stop-opacity:0.23529412"
         offset="0.86802605" />
      <stop
         id="stop4895"
         style="stop-color:#ffffff;stop-opacity:1"
         offset="1" />
    </linearGradient>
    <radialGradient
       cx="64.388718"
       cy="114.8309"
       r="52.5"
       fx="64.388718"
       fy="114.8309"
       id="radialGradient3231"
       xlink:href="#linearGradient3287"
       gradientUnits="userSpaceOnUse"
       gradientTransform="matrix(1.3333434,0,0,0.08199654,-19.85227,-67.924137)" />
    <linearGradient
       id="linearGradient3287">
      <stop
         id="stop3289"
         style="stop-color:#000000;stop-opacity:1"
         offset="0" />
      <stop
         id="stop3291"
         style="stop-color:#000000;stop-opacity:0"
         offset="1" />
    </linearGradient>
    <linearGradient
       x1="24.406591"
       y1="14.349205"
       x2="24.406591"
       y2="32.439884"
       id="linearGradient3290-6"
       xlink:href="#linearGradient3292-0"
       gradientUnits="userSpaceOnUse"
       gradientTransform="matrix(2.4594594,0,0,2.8918915,4.9729776,-5.4055862)" />
    <linearGradient
       id="linearGradient3292-0">
      <stop
         id="stop3294-8"
         style="stop-color:#ffffff;stop-opacity:1"
         offset="0" />
      <stop
         id="stop3296-5"
         style="stop-color:#ffffff;stop-opacity:0.23529412"
         offset="0.13197395" />
      <stop
         id="stop3298-3"
         style="stop-color:#ffffff;stop-opacity:0.15686275"
         offset="0.97377032" />
      <stop
         id="stop3300-9"
         style="stop-color:#ffffff;stop-opacity:0.39215687"
         offset="1" />
    </linearGradient>
    <radialGradient
       cx="11.314826"
       cy="7.6178813"
       r="19.99999"
       fx="11.314826"
       fy="7.6178813"
       id="radialGradient3147-0"
       xlink:href="#linearGradient2867-449-88-871-390-598-476-591-434-148-57-177-641-289-620-227-114-444-680-744-8-7-5"
       gradientUnits="userSpaceOnUse"
       gradientTransform="matrix(0,3.8373567,-3.2802878,0,94.106647,-72.425278)" />
    <linearGradient
       id="linearGradient2867-449-88-871-390-598-476-591-434-148-57-177-641-289-620-227-114-444-680-744-8-7-5">
      <stop
         id="stop5430-8-6-6"
         style="stop-color:#5f5f5f;stop-opacity:1"
         offset="0" />
      <stop
         id="stop5432-3-5-7"
         style="stop-color:#4f4f4f;stop-opacity:1"
         offset="0.26238" />
      <stop
         id="stop5434-1-6-7"
         style="stop-color:#3b3b3b;stop-opacity:1"
         offset="0.704952" />
      <stop
         id="stop5436-8-9-40"
         style="stop-color:#2b2b2b;stop-opacity:1"
         offset="1" />
    </linearGradient>
    <linearGradient
       x1="24"
       y1="44"
       x2="24"
       y2="3.8990016"
       id="linearGradient3149-6"
       xlink:href="#linearGradient3707-319-631-407-324-616-674-812-821-107-178-392-400-6-7-4"
       gradientUnits="userSpaceOnUse"
       gradientTransform="matrix(2.6575939,0,0,2.7952469,2.5403603,-67.09325)" />
    <linearGradient
       id="linearGradient3707-319-631-407-324-616-674-812-821-107-178-392-400-6-7-4">
      <stop
         id="stop5440-4-4-7"
         style="stop-color:#272727;stop-opacity:1"
         offset="0" />
      <stop
         id="stop5442-3-5-4"
         style="stop-color:#454545;stop-opacity:1"
         offset="1" />
    </linearGradient>
    <linearGradient
       x1="23.99999"
       y1="4.999989"
       x2="23.99999"
       y2="43"
       id="linearGradient3142"
       xlink:href="#linearGradient3731"
       gradientUnits="userSpaceOnUse"
       gradientTransform="matrix(2.4829794,0,0,2.9195468,4.4084975,-70.0691)" />
    <linearGradient
       id="linearGradient3731">
      <stop
         id="stop3733"
         style="stop-color:#ffffff;stop-opacity:1"
         offset="0" />
      <stop
         id="stop3735"
         style="stop-color:#ffffff;stop-opacity:0.23529412"
         offset="0.02706478" />
      <stop
         id="stop3737"
         style="stop-color:#ffffff;stop-opacity:0.15686275"
         offset="0.97377032" />
      <stop
         id="stop3739"
         style="stop-color:#ffffff;stop-opacity:0.39215687"
         offset="1" />
    </linearGradient>
    <radialGradient
       cx="7.4956832"
       cy="8.4497671"
       r="19.99999"
       fx="7.4956832"
       fy="8.4497671"
       id="radialGradient3145"
       xlink:href="#linearGradient2867-449-88-871-390-598-476-591-434-148-57-177-641-289-620-227-114-444-680-744-8"
       gradientUnits="userSpaceOnUse"
       gradientTransform="matrix(5.0514012e-8,6.5315873,-6.427867,-1.2033678e-7,122.51425,-101.8306)" />
    <linearGradient
       id="linearGradient2867-449-88-871-390-598-476-591-434-148-57-177-641-289-620-227-114-444-680-744-8">
      <stop
         id="stop5430-8"
         style="stop-color:#5f5f5f;stop-opacity:1"
         offset="0" />
      <stop
         id="stop5432-3"
         style="stop-color:#4f4f4f;stop-opacity:1"
         offset="0.26238" />
      <stop
         id="stop5434-1"
         style="stop-color:#3b3b3b;stop-opacity:1"
         offset="0.704952" />
      <stop
         id="stop5436-8"
         style="stop-color:#2b2b2b;stop-opacity:1"
         offset="1" />
    </linearGradient>
    <linearGradient
       x1="24"
       y1="44"
       x2="24"
       y2="3.8990016"
       id="linearGradient3147"
       xlink:href="#linearGradient3707-319-631-407-324-616-674-812-821-107-178-392-400-6"
       gradientUnits="userSpaceOnUse"
       gradientTransform="matrix(2.5999999,0,0,2.7948717,5.8000043,-67.076929)" />
    <linearGradient
       id="linearGradient3707-319-631-407-324-616-674-812-821-107-178-392-400-6">
      <stop
         id="stop5440-4"
         style="stop-color:#272727;stop-opacity:1"
         offset="0" />
      <stop
         id="stop5442-3"
         style="stop-color:#454545;stop-opacity:1"
         offset="1" />
    </linearGradient>
    <radialGradient
       cx="65.341156"
       cy="-44.956593"
       r="45.658844"
       fx="65.341156"
       fy="-44.956593"
       id="radialGradient3831"
       xlink:href="#linearGradient8967"
       gradientUnits="userSpaceOnUse"
       gradientTransform="matrix(0,2.9345263,-3.534889,0,-93.575409,-245.89618)" />
    <linearGradient
       id="linearGradient8967">
      <stop
         id="stop8969"
         style="stop-color:#d1ff82;stop-opacity:1"
         offset="0" />
      <stop
         id="stop8971"
         style="stop-color:#3a9104;stop-opacity:1"
         offset="1" />
    </linearGradient>
    <linearGradient
       x1="31.939497"
       y1="5.2221608"
       x2="31.939497"
       y2="60.887512"
       id="linearGradient3153"
       xlink:href="#linearGradient3319"
       gradientUnits="userSpaceOnUse"
       gradientTransform="matrix(1.8622046,0,0,1.9602517,5.7506043,-64.170075)" />
    <linearGradient
       id="linearGradient3319">
      <stop
         id="stop3321"
         style="stop-color:#3a9104;stop-opacity:1"
         offset="0" />
      <stop
         id="stop3323"
         style="stop-color:#206b00;stop-opacity:1"
         offset="1" />
    </linearGradient>
    <linearGradient
       x1="10.654308"
       y1="1"
       x2="10.654308"
       y2="3"
       id="linearGradient3156"
       xlink:href="#linearGradient2346"
       gradientUnits="userSpaceOnUse"
       gradientTransform="matrix(2.6000003,0,0,2.7500175,0.5993211,-63.875076)" />
    <linearGradient
       id="linearGradient2346">
      <stop
         id="stop2348"
         style="stop-color:#f5f5f5;stop-opacity:1"
         offset="0" />
      <stop
         id="stop2350"
         style="stop-color:#e1e1e1;stop-opacity:1"
         offset="1" />
    </linearGradient>
    <linearGradient
       x1="24"
       y1="44"
       x2="24"
       y2="3.8990016"
       id="linearGradient3158"
       xlink:href="#linearGradient3707-319-631-407-324-616-674-812-821-107-178-392-400-6-2"
       gradientUnits="userSpaceOnUse"
       gradientTransform="matrix(2.6000003,0,0,0.28205131,5.8000003,-63.769232)" />
    <linearGradient
       id="linearGradient3707-319-631-407-324-616-674-812-821-107-178-392-400-6-2">
      <stop
         id="stop5440-4-8"
         style="stop-color:#272727;stop-opacity:1"
         offset="0" />
      <stop
         id="stop5442-3-8"
         style="stop-color:#454545;stop-opacity:1"
         offset="1" />
    </linearGradient>
    <linearGradient
       x1="24.62738"
       y1="3.1234391"
       x2="24.640038"
       y2="4.882647"
       id="linearGradient4333"
       xlink:href="#linearGradient2346"
       gradientUnits="userSpaceOnUse"
       gradientTransform="matrix(2.6646671,0,0,4.0925893,4.3539233,-74.571687)" />
    <linearGradient
       x1="5.2122574"
       y1="0.065301567"
       x2="54.887218"
       y2="0.065301567"
       id="linearGradient4335"
       xlink:href="#linearGradient4652"
       gradientUnits="userSpaceOnUse"
       gradientTransform="matrix(1.9009526,0,0,1.9880919,6.8243933,-63.959172)" />
    <linearGradient
       id="linearGradient4652">
      <stop
         id="stop4654"
         style="stop-color:#3a9104;stop-opacity:1"
         offset="0" />
      <stop
         id="stop4656"
         style="stop-color:#3a9104;stop-opacity:1"
         offset="0.95970964" />
      <stop
         id="stop4658"
         style="stop-color:#c2c2c2;stop-opacity:1"
         offset="0.96326458" />
      <stop
         id="stop4660"
         style="stop-color:#c2c2c2;stop-opacity:1"
         offset="1" />
    </linearGradient>
    <radialGradient
       cx="4.9929786"
       cy="43.5"
       r="2.5"
       fx="4.9929786"
       fy="43.5"
       id="radialGradient2455"
       xlink:href="#linearGradient3688-166-749"
       gradientUnits="userSpaceOnUse"
       gradientTransform="matrix(2.003784,0,0,1.4,27.98813,-17.4)" />
    <linearGradient
       id="linearGradient3688-166-749">
      <stop
         id="stop2883"
         style="stop-color:#181818;stop-opacity:1"
         offset="0" />
      <stop
         id="stop2885"
         style="stop-color:#181818;stop-opacity:0"
         offset="1" />
    </linearGradient>
    <radialGradient
       cx="4.9929786"
       cy="43.5"
       r="2.5"
       fx="4.9929786"
       fy="43.5"
       id="radialGradient2457"
       xlink:href="#linearGradient3688-464-309"
       gradientUnits="userSpaceOnUse"
       gradientTransform="matrix(2.003784,0,0,1.4,-20.01187,-104.4)" />
    <linearGradient
       id="linearGradient3688-464-309">
      <stop
         id="stop2889"
         style="stop-color:#181818;stop-opacity:1"
         offset="0" />
      <stop
         id="stop2891"
         style="stop-color:#181818;stop-opacity:0"
         offset="1" />
    </linearGradient>
    <linearGradient
       x1="25.058096"
       y1="47.027729"
       x2="25.058096"
       y2="39.999443"
       id="linearGradient2459"
       xlink:href="#linearGradient3702-501-757"
       gradientUnits="userSpaceOnUse" />
    <linearGradient
       id="linearGradient3702-501-757">
      <stop
         id="stop2895"
         style="stop-color:#181818;stop-opacity:0"
         offset="0" />
      <stop
         id="stop2897"
         style="stop-color:#181818;stop-opacity:1"
         offset="0.5" />
      <stop
         id="stop2899"
         style="stop-color:#181818;stop-opacity:0"
         offset="1" />
    </linearGradient>
    <linearGradient
       inkscape:collect="always"
       xlink:href="#linearGradient4903"
       id="linearGradient4892"
       gradientUnits="userSpaceOnUse"
       gradientTransform="matrix(5.4462144,0,0,5.728307,2.050594,-7.4032384)"
       x1="24"
       y1="32.886143"
       x2="24"
       y2="13.874692" />
  </defs>
  <metadata
     id="metadata4139">
    <rdf:RDF>
      <cc:Work
         rdf:about="">
        <dc:format>image/svg+xml</dc:format>
        <dc:type
           rdf:resource="http://purl.org/dc/dcmitype/StillImage" />
        <dc:title></dc:title>
      </cc:Work>
    </rdf:RDF>
  </metadata>
  <g
     transform="matrix(2.0493027,0,0,2.0493027,-3.1553732,130.09114)"
     id="layer1"
     style="stroke-width:0.48797086;stroke-miterlimit:4;stroke-dasharray:none">
    <g
       transform="matrix(2.6499989,0,0,1.4444458,0.4000001,-8.888906)"
       id="g2036"
       style="display:inline;stroke-width:0.24941376;stroke-miterlimit:4;stroke-dasharray:none">
      <g
         transform="matrix(1.052632,0,0,1.285713,-1.263158,-13.42854)"
         id="g3712"
         style="opacity:0.4;stroke-width:0.21439276;stroke-miterlimit:4;stroke-dasharray:none">
        <rect
           width="5"
           height="7"
           x="38"
           y="40"
           id="rect2801"
           style="fill:url(#radialGradient2455);fill-opacity:1;stroke:none;stroke-width:0.21439276;stroke-miterlimit:4;stroke-dasharray:none" />
        <rect
           width="5"
           height="7"
           x="-10"
           y="-47"
           transform="scale(-1)"
           id="rect3696"
           style="fill:url(#radialGradient2457);fill-opacity:1;stroke:none;stroke-width:0.21439276;stroke-miterlimit:4;stroke-dasharray:none" />
        <rect
           width="28"
           height="7.0000005"
           x="10"
           y="40"
           id="rect3700"
           style="fill:url(#linearGradient2459);fill-opacity:1;stroke:none;stroke-width:0.21439276;stroke-miterlimit:4;stroke-dasharray:none" />
      </g>
    </g>
    <path
       d="m 109.4913,-53.635182 c -0.78398,-2.637501 -0.29534,-6.340678 -0.72834,-8.856119 H 28.508699 l 0.473668,7.982602"
       id="path2723"
       style="display:inline;fill:url(#linearGradient4333);fill-opacity:1;stroke:url(#linearGradient4335);stroke-width:0.48797086;stroke-linecap:butt;stroke-linejoin:round;stroke-miterlimit:4;stroke-dasharray:none;stroke-dashoffset:0;stroke-opacity:1"
       inkscape:connector-curvature="0" />
    <path
       d="M 30.5,-51.5 H 20.1 c -1.484206,0 -2.6,-0.116416 -2.6,-0.268291 V -59.91383 C 17.5,-61.849698 18.144001,-62.5 20.046842,-62.5 H 30.5"
       id="rect5505-21-3-9"
       style="color:#000000;display:inline;overflow:visible;visibility:visible;fill:url(#linearGradient3156);fill-opacity:1;fill-rule:nonzero;stroke:url(#linearGradient3158);stroke-width:0.48797086;stroke-linecap:round;stroke-linejoin:round;stroke-miterlimit:4;stroke-dasharray:none;stroke-dashoffset:0;stroke-opacity:1;marker:none;enable-background:accumulate"
       inkscape:connector-curvature="0" />
    <rect
       width="90.298645"
       height="108.98096"
       rx="2"
       ry="2"
       x="20.191833"
       y="-54.506298"
       id="rect2719"
       style="display:inline;fill:url(#radialGradient3831);fill-opacity:1;stroke:url(#linearGradient3153);stroke-width:0.48797086;stroke-linecap:round;stroke-linejoin:round;stroke-miterlimit:4;stroke-dasharray:none;stroke-dashoffset:0;stroke-opacity:1" />
    <path
       d="m 30.5,-54.500006 c 0,0 0,75.792524 0,108.999996 H 19.771149 C 18.286944,54.49999 17.5,53.62457 17.5,52.11972 V -54.500006 Z"
       id="rect5505-21-3"
       style="color:#000000;display:inline;overflow:visible;visibility:visible;fill:url(#radialGradient3145);fill-opacity:1;fill-rule:nonzero;stroke:url(#linearGradient3147);stroke-width:0.48797086;stroke-linecap:round;stroke-linejoin:round;stroke-miterlimit:4;stroke-dasharray:none;stroke-dashoffset:0;stroke-opacity:1;marker:none;enable-background:accumulate"
       inkscape:connector-curvature="0" />
    <rect
       width="91.870239"
       height="108.02325"
       rx="1.4065552"
       ry="0"
       x="18.064878"
       y="-54.011627"
       id="rect6741-0"
       style="opacity:0.5;fill:none;stroke:url(#linearGradient3142);stroke-width:0.4926374;stroke-linecap:round;stroke-linejoin:round;stroke-miterlimit:4;stroke-dasharray:none;stroke-dashoffset:0;stroke-opacity:1" />
    <path
       d="m 68.819022,-26.975723 c -1.669393,-0.0096 -3.135218,0.297912 -4.132939,0.93499 -1.287192,0.821917 -1.854722,0.92624 -2.214075,0.359612 -0.343821,-0.542116 -0.656513,-0.481552 -0.959433,0.287687 -0.25617,0.650553 -0.791678,0.947546 -1.402248,0.719223 -0.582143,-0.217708 -0.820861,-0.147582 -0.590419,0.215776 0.221441,0.349206 0.113181,0.647297 -0.221415,0.647297 -0.33459,0 -1.406155,1.101661 -2.36168,2.445356 -1.523197,2.141963 -1.77165,3.120921 -1.771261,7.623756 2.11e-4,2.825175 0.290497,5.5760455 -0.590421,5.7537815 -0.516658,0.10425 -0.467471,2.067895 -0.221414,4.099567 0.32177,2.656771 0.802387,3.95830078 2.140273,5.1783988 2.083837,1.900366 3.985336,5.189942 3.985336,6.976459 0,2.5008057 -6.403803,6.9971137 -15.479326,10.9719177 v 5.78596 c 18.893446,0 49,0 49,0 V 18.98259 C 85.99261,15.73484 78.929954,10.755661 78.929954,8.2661803 c 0,-1.782203 1.829786,-5.078003 3.911531,-6.976459 1.33787,-1.22009802 1.892311,-2.5216278 2.214077,-5.1783988 0.246044,-2.031672 0.279309,-3.937435 -0.221414,-4.099567 -0.689939,-0.223403 -0.664216,-2.9517725 -0.664216,-5.7537815 -3e-6,-4.016446 -0.262324,-5.511134 -1.328447,-7.192222 -2.121429,-3.345097 -9.014292,-6.012617 -14.022478,-6.041469 z"
       id="rect2382-2"
       style="color:#000000;display:inline;overflow:visible;visibility:visible;opacity:0.4;fill:#ffffff;fill-opacity:1;fill-rule:nonzero;stroke:none;stroke-width:0.48797086;stroke-miterlimit:4;stroke-dasharray:none;marker:none;enable-background:accumulate"
       inkscape:connector-curvature="0" />
    <path
       d="m 68.83292,-28.499774 c -1.635324,-0.0098 -3.071234,0.303641 -4.048594,0.952971 -1.260923,0.837723 -1.81687,0.944053 -2.16889,0.366528 -0.336804,-0.552541 -0.643114,-0.490812 -0.939852,0.29322 -0.250942,0.663063 -0.775522,0.965768 -1.373631,0.733054 -0.570263,-0.221894 -0.804109,-0.15042 -0.57837,0.219925 0.216922,0.355921 0.110872,0.659745 -0.216896,0.659745 -0.327762,0 -1.377458,1.122848 -2.313482,2.492383 -1.492112,2.183153 -1.735494,3.180938 -1.735113,7.770366 2.06e-4,2.879505 0.284568,5.683276 -0.578372,5.86443 -0.506114,0.106256 -0.457931,2.107662 -0.216895,4.178405 0.315203,2.707863 0.786012,4.034422 2.096594,5.277984 2.041309,1.936911 3.904002,5.289748 3.904002,7.110621 0,2.548899 -6.273113,7.131674 -15.163421,11.182917 v 5.897228 c 18.507865,0 48,0 48,0 v -6.15765 C 85.656026,15.032146 78.737506,9.957214 78.737506,7.419858 c 0,-1.816475 1.792443,-5.175656 3.831704,-7.110621 1.310566,-1.243562 1.853692,-2.570121 2.168892,-5.277984 0.241022,-2.070743 0.273608,-4.013154 -0.216896,-4.178405 -0.675858,-0.227699 -0.65066,-3.008537 -0.65066,-5.86443 -3e-6,-4.093686 -0.256971,-5.617118 -1.301336,-7.330534 -2.078135,-3.409426 -8.830327,-6.128245 -13.736305,-6.15765 z"
       id="rect2382"
       style="color:#000000;display:inline;overflow:visible;visibility:visible;fill:url(#radialGradient3147-0);fill-opacity:1;fill-rule:nonzero;stroke:url(#linearGradient3149-6);stroke-width:0.48797086;stroke-linecap:round;stroke-linejoin:round;stroke-miterlimit:4;stroke-dasharray:none;stroke-dashoffset:0;stroke-opacity:1;marker:none;enable-background:accumulate"
       inkscape:connector-curvature="0" />
    <path
       d="m 18.5,-60.499997 h 92 m -92,2 h 92 m -92,2 h 92"
       id="path3262"
       style="opacity:0.1;fill:none;stroke:url(#radialGradient3231);stroke-width:0.48797086;stroke-linecap:butt;stroke-linejoin:miter;stroke-opacity:1;stroke-miterlimit:4;stroke-dasharray:none"
       inkscape:connector-curvature="0" />
    <path
       style="color:#000000;display:inline;overflow:visible;visibility:visible;fill:none;fill-opacity:1;fill-rule:nonzero;stroke:url(#linearGradient4892);stroke-width:1;stroke-linecap:round;stroke-linejoin:round;stroke-miterlimit:4;stroke-dasharray:none;stroke-dashoffset:0;stroke-opacity:1;marker:none;enable-background:accumulate;opacity:0.5"
       d="M 137.89844 72.6875 C 134.67844 72.668204 131.91254 73.309722 130.16211 74.472656 C 128.82992 75.357725 127.85165 75.915688 126.85938 76.087891 C 126.36324 76.173998 125.83076 76.138228 125.36719 75.916016 C 124.9252 75.704153 124.60283 75.346249 124.35742 74.960938 C 124.29473 75.084478 124.24615 75.152653 124.17383 75.34375 C 123.85288 76.191786 123.32023 76.904549 122.57617 77.310547 C 121.88888 77.685559 121.04027 77.66884 120.25195 77.417969 C 120.29028 77.687132 120.47389 77.927505 120.37891 78.210938 C 120.16494 78.849357 119.43585 79.294922 118.79102 79.294922 C 119.19406 79.294922 118.92608 79.272299 118.66211 79.482422 C 118.39814 79.692543 118.02944 80.041518 117.62109 80.480469 C 116.8044 81.358367 115.80767 82.606068 114.875 83.970703 C 113.37186 86.16999 112.57596 87.635859 112.10156 89.738281 C 111.62716 91.840704 111.49375 94.643245 111.49414 99.328125 C 111.49437 102.24572 111.6442 105.15154 111.56641 107.44531 C 111.52751 108.5922 111.438 109.58038 111.20117 110.41406 C 111.08276 110.83091 110.93157 111.21796 110.66992 111.56641 C 110.45667 111.85041 110.13976 112.10239 109.77148 112.24219 C 109.753 112.28149 109.73409 112.31257 109.70117 112.43555 C 109.60863 112.78125 109.53221 113.39616 109.51172 114.14453 C 109.47086 115.64128 109.61774 117.70033 109.86133 119.79297 C 110.49839 125.26586 111.33663 127.61367 113.85156 130 C 116.04202 132.07843 118.08357 134.85025 119.60742 137.61523 C 121.13128 140.38021 122.16406 143.09013 122.16406 145.29688 C 122.16406 147.01293 121.19738 148.72998 119.63086 150.56445 C 118.06434 152.39893 115.83734 154.3588 113.05078 156.4082 C 107.60676 160.41206 99.972702 164.7395 91.087891 168.82812 L 91.087891 179.29883 L 187.45312 179.29883 L 187.45312 168.29883 C 179.58454 164.92153 172.19057 160.74671 166.70508 156.69922 C 163.88797 154.6206 161.5693 152.58725 159.91602 150.69141 C 158.26273 148.79557 157.20312 147.05127 157.20312 145.29688 C 157.20312 143.1067 158.19279 140.39688 159.67969 137.62891 C 161.16659 134.86093 163.17035 132.08085 165.36328 130 C 167.89151 127.60103 168.87084 125.24841 169.50586 119.79297 C 169.74928 117.7017 169.88252 115.67548 169.83789 114.19336 C 169.81557 113.4523 169.74449 112.84428 169.65039 112.48438 C 169.55629 112.12447 169.42079 112.18537 169.73438 112.29102 C 168.80271 111.97714 168.51877 111.16706 168.29688 110.35938 C 168.07498 109.55169 167.95165 108.57012 167.86914 107.42969 C 167.70403 105.14883 167.7207 102.25148 167.7207 99.328125 C 167.7207 90.980772 167.24028 88.174794 165.19922 84.826172 C 163.25888 81.642826 158.88849 78.540072 153.75586 76.316406 C 148.62324 74.092739 142.74339 72.716539 137.89844 72.6875 z "
       transform="matrix(0.48797086,0,0,0.48797086,1.5397302,-63.480685)"
       id="path4882" />
  </g>
</svg>
