<?xml version="1.0" encoding="UTF-8" standalone="no"?>
<svg
   xmlns:dc="http://purl.org/dc/elements/1.1/"
   xmlns:cc="http://creativecommons.org/ns#"
   xmlns:rdf="http://www.w3.org/1999/02/22-rdf-syntax-ns#"
   xmlns:svg="http://www.w3.org/2000/svg"
   xmlns="http://www.w3.org/2000/svg"
   xmlns:xlink="http://www.w3.org/1999/xlink"
   xmlns:sodipodi="http://sodipodi.sourceforge.net/DTD/sodipodi-0.dtd"
   xmlns:inkscape="http://www.inkscape.org/namespaces/inkscape"
   version="1.1"
   width="64"
   height="64"
   id="svg3489"
   inkscape:version="0.92.3 (2405546, 2018-03-11)"
   sodipodi:docname="contacts-avatar-default.svg">
  <sodipodi:namedview
     pagecolor="#ffffff"
     bordercolor="#666666"
     borderopacity="1"
     objecttolerance="10"
     gridtolerance="10"
     guidetolerance="10"
     inkscape:pageopacity="0"
     inkscape:pageshadow="2"
     inkscape:window-width="1366"
     inkscape:window-height="705"
     id="namedview48"
     showgrid="true"
     inkscape:zoom="4"
     inkscape:cx="-41.205728"
     inkscape:cy="41.289709"
     inkscape:window-x="0"
     inkscape:window-y="30"
     inkscape:window-maximized="1"
     inkscape:current-layer="svg3489"
     inkscape:object-nodes="true"
     inkscape:snap-smooth-nodes="true"
     inkscape:snap-bbox="true"
     inkscape:bbox-paths="true"
     inkscape:bbox-nodes="true"
     inkscape:snap-bbox-edge-midpoints="true"
     inkscape:snap-bbox-midpoints="true"
     inkscape:object-paths="true"
     inkscape:snap-intersection-paths="true"
     inkscape:snap-midpoints="true"
     inkscape:snap-object-midpoints="true"
     inkscape:snap-center="true"
     inkscape:snap-text-baseline="true"
     inkscape:snap-page="true"
     showguides="false">
    <inkscape:grid
       type="xygrid"
       id="grid4176"
       empspacing="4" />
    <inkscape:grid
       type="xygrid"
       id="grid4574" />
  </sodipodi:namedview>
  <defs
     id="defs3491">
    <radialGradient
       xlink:href="#linearGradient27416-1-2-0-1"
       id="radialGradient4145"
       gradientUnits="userSpaceOnUse"
       gradientTransform="matrix(0,3.9006198,-4.1263902,-1.0616887e-7,66.867221,-24.476823)"
       cx="3.9722471"
       cy="8.4497671"
       fx="3.9722471"
       fy="8.4497671"
       r="19.99999" />
    <linearGradient
       id="linearGradient27416-1-2-0-1">
      <stop
         offset="0"
         style="stop-color:#9bdb4d;stop-opacity:1"
         id="stop27420-2-0-8-7" />
      <stop
         offset="1"
         style="stop-color:#3a910f;stop-opacity:0.94117647"
         id="stop27422-3-5-3-3" />
    </linearGradient>
  </defs>
  <metadata
     id="metadata3494">
    <rdf:RDF>
      <cc:Work
         rdf:about="">
        <dc:format>image/svg+xml</dc:format>
        <dc:type
           rdf:resource="http://purl.org/dc/dcmitype/StillImage" />
        <dc:title />
      </cc:Work>
    </rdf:RDF>
  </metadata>
  <rect
     style="opacity:1;fill:#00ffff;fill-opacity:0.93956042;stroke:none;stroke-width:1.98970234;stroke-linecap:square;stroke-linejoin:round;stroke-miterlimit:4;stroke-dasharray:none;stroke-opacity:1"
     id="rect4572"
     width="59"
     height="59.000004"
     x="2.5"
     y="2.4999969" />
  <path
     d="M 63.999997,0 H 3.2313558e-6 V 63.999997 H 63.999997 Z"
     id="path2555"
     style="color:#000000;display:inline;overflow:visible;visibility:visible;fill:url(#radialGradient4145);fill-opacity:1;fill-rule:nonzero;stroke:none;stroke-width:1.08474565;marker:none;enable-background:accumulate"
     inkscape:connector-curvature="0"
     sodipodi:nodetypes="ccccc" />
  <path
     sodipodi:nodetypes="sssssscscss"
     id="path4321"
     d="m 32.000002,15 c -6.892513,0 -12.4875,5.372581 -12.4875,12 0,6.627419 5.594987,12 12.4875,12 6.892519,0 12.487495,-5.372581 12.487495,-12 0,-6.627419 -5.594976,-12 -12.487495,-12 z m -4.5375,27.046447 c -5.564604,0 -10.358471,3.645027 -12.7875,8.453553 4.337101,4.626099 10.483418,7.5 17.325,7.5 6.841591,0 12.987895,-2.873901 17.324996,-7.5 -2.429028,-4.808526 -7.222896,-8.453553 -12.787501,-8.453553 z"
     style="color:#000000;display:inline;overflow:visible;visibility:visible;fill:#000000;fill-opacity:1;fill-rule:nonzero;stroke:none;stroke-width:2;marker:none;enable-background:accumulate;opacity:0.15"
     inkscape:connector-curvature="0" />
  <path
     inkscape:connector-curvature="0"
     style="color:#000000;display:inline;overflow:visible;visibility:visible;fill:#000000;fill-opacity:1;fill-rule:nonzero;stroke:#000000;stroke-width:2;marker:none;enable-background:accumulate;opacity:0.05;stroke-opacity:1;stroke-linejoin:round"
     d="m 32.000002,15 c -6.892513,0 -12.4875,5.372581 -12.4875,12 0,6.627419 5.594987,12 12.4875,12 6.892519,0 12.487495,-5.372581 12.487495,-12 0,-6.627419 -5.594976,-12 -12.487495,-12 z m -4.5375,27.046447 c -5.564604,0 -10.358471,3.645027 -12.7875,8.453553 4.337101,4.626099 10.483418,7.5 17.325,7.5 6.841591,0 12.987895,-2.873901 17.324996,-7.5 -2.429028,-4.808526 -7.222896,-8.453553 -12.787501,-8.453553 z"
     id="path4323"
     sodipodi:nodetypes="sssssscscss" />
  <path
     inkscape:connector-curvature="0"
     style="color:#000000;display:inline;overflow:visible;visibility:visible;fill:#ffffff;fill-opacity:1;fill-rule:nonzero;stroke:none;stroke-width:2;marker:none;enable-background:accumulate"
     d="m 32.000002,14 c -6.892513,0 -12.4875,5.372581 -12.4875,12 0,6.627419 5.594987,12 12.4875,12 6.892519,0 12.487495,-5.372581 12.487495,-12 0,-6.627419 -5.594976,-12 -12.487495,-12 z m -4.5375,27.046447 c -5.564604,0 -10.358471,3.645027 -12.7875,8.453553 4.337101,4.626099 10.483418,7.5 17.325,7.5 6.841591,0 12.987895,-2.873901 17.324996,-7.5 -2.429028,-4.808526 -7.222896,-8.453553 -12.787501,-8.453553 z"
     id="path3224"
     sodipodi:nodetypes="sssssscscss" />
</svg>
